<svg width="48px" height="48px" viewBox="0 0 48 48" xmlns="http://www.w3.org/2000/svg">
  <title>Google Logo</title>
  <path fill="#EA4335" d="M24 9.5c3.22 0 5.17 1.34 6.32 2.44l4.68-4.68C31.69 4.56 28.16 3 24 3 16.11 3 9.83 7.86 7.49 14.52l5.29 4.09C14.1 14.26 18.63 9.5 24 9.5z"/>
  <path fill="#4285F4" d="M46.17 24.64c0-1.68-.15-3.29-.42-4.84H24v9.17h12.54c-.54 2.96-2.18 5.47-4.68 7.18l5.03 3.89c2.98-2.75 4.72-6.8 4.72-11.51z"/>
  <path fill="#FBBC05" d="M12.78 28.61C12.24 27.06 12 25.41 12 24s.24-3.06.78-4.61l-5.29-4.09C5.83 17.98 5 20.89 5 24s.83 6.02 2.49 8.7z"/>
  <path fill="#34A853" d="M24 45c4.16 0 7.69-1.38 10.24-3.72l-5.03-3.89c-1.38.93-3.14 1.48-5.21 1.48-5.37 0-9.9-4.76-11.51-11.13l-5.29 4.09C9.83 39.14 16.11 45 24 45z"/>
  <path fill="none" d="M0 0h48v48H0z"/>
</svg>
